<svg width="100" height="100" viewBox="0 0 100 100" fill="none" xmlns="http://www.w3.org/2000/svg">
<g id="&#240;&#159;&#166;&#134; icon &#34;stats report&#34;">
<path id="Vector" d="M39.5556 34.3333H18.6667" stroke="black" stroke-width="5.76011" stroke-linecap="round" stroke-linejoin="round"/>
<path id="Vector_2" d="M68.2778 44.7777C61.0675 44.7777 55.2223 38.9326 55.2223 31.7222C55.2223 24.5118 61.0675 18.6666 68.2778 18.6666C75.4882 18.6666 81.3334 24.5118 81.3334 31.7222C81.3334 38.9326 75.4882 44.7777 68.2778 44.7777Z" stroke="black" stroke-width="5.76011" stroke-linecap="round" stroke-linejoin="round"/>
<path id="Vector_3" d="M18.6667 18.6666H34.3334" stroke="black" stroke-width="5.76011" stroke-linecap="round" stroke-linejoin="round"/>
<path id="Vector_4" d="M81.3334 81.3333L57.8334 65.6666L44.7779 76.1111L18.6667 55.2222" stroke="black" stroke-width="5.76011" stroke-linecap="round" stroke-linejoin="round"/>
<path id="Vector_5" d="M3 93.8667V6.13333C3 4.40285 4.40285 3 6.13333 3H93.8667C95.5973 3 97 4.40285 97 6.13333V93.8667C97 95.5973 95.5973 97 93.8667 97H6.13333C4.40285 97 3 95.5973 3 93.8667Z" stroke="black" stroke-width="5.76011"/>
</g>
</svg>
