<svg width="106" height="106" viewBox="0 0 106 106" fill="none" xmlns="http://www.w3.org/2000/svg">
<g id="&#240;&#159;&#166;&#134; icon &#34;settings&#34;">
<path id="Vector" d="M52.9999 67.7C61.1187 67.7 67.6999 61.1188 67.6999 53C67.6999 44.8812 61.1187 38.3 52.9999 38.3C44.8811 38.3 38.2999 44.8812 38.2999 53C38.2999 61.1188 44.8811 67.7 52.9999 67.7Z" stroke="black" stroke-width="6.33752" stroke-linecap="round" stroke-linejoin="round"/>
<path id="Vector_2" d="M90.3498 45.1375L84.971 32.1495L92.2 23.6L82.4 13.8L73.897 21.0665L60.6332 15.6117L57.583 4H48.0069L44.9106 15.7655L31.9516 21.2282L23.6 13.8L13.8 23.6L20.9215 32.3654L15.6252 45.3869L4 48.1V57.9L15.7654 61.112L21.2272 74.0685L13.8 82.4L23.6 92.2L32.3767 85.0475L45.1453 90.3003L48.1 102H57.9L60.8621 90.3047L73.85 84.9259C76.0148 86.4734 82.4 92.2 82.4 92.2L92.2 82.4L84.9279 73.8221L90.3081 60.8302L102 57.7883L102 48.1L90.3498 45.1375Z" stroke="black" stroke-width="6.33752" stroke-linecap="round" stroke-linejoin="round"/>
</g>
</svg>
